<svg width="26" height="22" viewBox="0 0 26 22" fill="none" xmlns="http://www.w3.org/2000/svg">
<path d="M6.02024 21.5564V10.9477L2.93498 7.93775L0.16835 6.26744V19.6843C0.16835 20.7201 0.955381 21.5564 1.92396 21.5564H6.02024Z" fill="#413D70"/>
<path d="M20.0647 21.5564H24.161C25.1325 21.5564 25.9166 20.717 25.9166 19.6842V6.26753L22.783 8.18067L20.0647 10.9477V21.5564Z" fill="#413D70"/>
<path d="M6.02024 10.9477L5.60044 6.80253L6.02026 2.83522L13.0425 8.4516L20.0647 2.83522L20.5343 6.58834L20.0647 10.9477L13.0425 16.5641L6.02024 10.9477Z" fill="#413D70"/>
<path d="M20.0647 2.83522L20.0647 10.9477L25.9166 6.26753V3.77125C25.9166 1.45611 23.4384 0.136324 21.7034 1.52476L20.0647 2.83522Z" fill="#413D70"/>
<path d="M0.16835 6.26744L6.02024 10.9477L6.02026 2.83522L4.38159 1.52478C2.64359 0.136233 0.168335 1.45613 0.168335 3.77116L0.16835 6.26744Z" fill="#413D70"/>
</svg>
