<svg width="13" height="12" viewBox="0 0 13 12" fill="none" xmlns="http://www.w3.org/2000/svg">
<path d="M12.0256 3.32999C11.9986 2.74391 11.9046 2.34367 11.7672 1.9935C11.6277 1.62611 11.4088 1.29333 11.126 1.01827C10.8484 0.738166 10.5123 0.521326 10.1414 0.38304C9.7878 0.247021 9.3838 0.154018 8.79209 0.127386C8.19928 0.100501 8.00987 0.0941162 6.50023 0.0941162C4.99059 0.0941162 4.80118 0.100501 4.20837 0.127218C3.61666 0.154018 3.21266 0.247105 2.85904 0.383208C2.48812 0.521411 2.15214 0.738166 1.87444 1.01827C1.59164 1.29325 1.37272 1.62602 1.23311 1.99342C1.09578 2.34367 1.00188 2.74391 0.974995 3.32991C0.947853 3.91717 0.941406 4.10468 0.941406 5.59996C0.941406 7.09532 0.947853 7.28293 0.974995 7.8701C1.00197 8.4561 1.09595 8.85634 1.23336 9.20659C1.37289 9.5739 1.59173 9.90676 1.87452 10.1817C2.15214 10.4618 2.4882 10.6786 2.85912 10.8168C3.21266 10.953 3.61674 11.046 4.20845 11.0728C4.80135 11.0996 4.99067 11.1059 6.50031 11.1059C8.00996 11.1059 8.19936 11.0996 8.79218 11.0728C9.38389 11.046 9.78789 10.953 10.1415 10.8168C10.8882 10.5308 11.4785 9.94617 11.7672 9.20659C11.9047 8.85634 11.9986 8.4561 12.0256 7.8701C12.0526 7.28284 12.0591 7.09532 12.0591 5.60005C12.0591 4.10468 12.0526 3.91717 12.0256 3.32999ZM11.025 7.82498C11.0003 8.36183 10.9097 8.65336 10.8336 8.84735C10.6466 9.32757 10.2635 9.70706 9.77864 9.89231C9.58279 9.96767 9.28846 10.0574 8.74646 10.0818C8.16043 10.1084 7.9846 10.1139 6.50023 10.1139C5.01578 10.1139 4.84003 10.1084 4.25392 10.0818C3.712 10.0574 3.41767 9.96767 3.22173 9.89231C2.98033 9.80401 2.76192 9.66329 2.58261 9.48039C2.39795 9.30279 2.25588 9.08654 2.16673 8.84735C2.09064 8.65336 2.00006 8.36183 1.97537 7.82498C1.94865 7.24445 1.94297 7.07029 1.94297 5.60013C1.94297 4.12989 1.94865 3.95581 1.97537 3.37519C2.00014 2.83834 2.09064 2.54682 2.16673 2.35283C2.25588 2.11364 2.39804 1.8973 2.58261 1.7197C2.76192 1.5368 2.98033 1.39608 3.22182 1.30786C3.41767 1.23242 3.712 1.14278 4.254 1.11824C4.84011 1.09178 5.01595 1.08615 6.50023 1.08615C7.98451 1.08615 8.16026 1.09178 8.74646 1.11833C9.28846 1.14278 9.58271 1.2325 9.77864 1.30786C10.02 1.39616 10.2385 1.53689 10.4178 1.7197C10.6024 1.8973 10.7445 2.11364 10.8336 2.35283C10.9097 2.54682 11.0003 2.83834 11.025 3.37519C11.0517 3.95573 11.0574 4.12989 11.0574 5.60005C11.0574 7.07029 11.0518 7.24436 11.025 7.82498Z" fill="url(#paint0_linear_445_737)"/>
<path d="M6.50014 2.77264C4.92366 2.77264 3.64567 4.03856 3.64567 5.60005C3.64567 7.16153 4.92366 8.42736 6.50014 8.42736C8.07671 8.42736 9.3547 7.16153 9.3547 5.60005C9.3547 4.03856 8.07671 2.77264 6.50014 2.77264ZM6.50014 7.43533C5.47686 7.43524 4.64723 6.61359 4.64732 5.59996C4.64732 4.58642 5.47686 3.76468 6.50023 3.76468C7.52359 3.76476 8.35314 4.58642 8.35314 5.59996C8.35314 6.61359 7.52351 7.43533 6.50014 7.43533Z" fill="url(#paint1_linear_445_737)"/>
<path d="M10.1345 2.66099C10.1345 3.02586 9.8359 3.32168 9.46752 3.32168C9.09906 3.32168 8.8004 3.02586 8.8004 2.66099C8.8004 2.29603 9.09906 2.00022 9.46752 2.00022C9.8359 2.00022 10.1345 2.29603 10.1345 2.66099Z" fill="url(#paint2_linear_445_737)"/>
<defs>
<linearGradient id="paint0_linear_445_737" x1="1.87438" y1="10.1818" x2="11.0376" y2="0.930515" gradientUnits="userSpaceOnUse">
<stop stop-color="#FFD600"/>
<stop offset="0.5" stop-color="#FF0100"/>
<stop offset="1" stop-color="#D800B9"/>
</linearGradient>
<linearGradient id="paint1_linear_445_737" x1="2.56957" y1="9.49326" x2="10.3557" y2="1.63227" gradientUnits="userSpaceOnUse">
<stop stop-color="#FF6400"/>
<stop offset="0.5" stop-color="#FF0100"/>
<stop offset="1" stop-color="#FD0056"/>
</linearGradient>
<linearGradient id="paint2_linear_445_737" x1="2.56983" y1="9.4931" x2="10.3556" y2="1.63246" gradientUnits="userSpaceOnUse">
<stop stop-color="#F30072"/>
<stop offset="1" stop-color="#E50097"/>
</linearGradient>
</defs>
</svg>
