<svg width="13" height="12" viewBox="0 0 13 12" fill="none" xmlns="http://www.w3.org/2000/svg">
<path d="M3.13123 11.9059V6.23464L1.65105 4.62556L0.323738 3.73263V10.9051C0.323738 11.4589 0.701322 11.9059 1.166 11.9059H3.13123Z" fill="#4285F4"/>
<path d="M9.86918 11.9059H11.8344C12.3005 11.9059 12.6767 11.4572 12.6767 10.9051V3.73268L11.1733 4.75542L9.86918 6.23463V11.9059Z" fill="#34A853"/>
<path d="M3.13123 6.23464L2.92983 4.01869L3.13124 1.89781L6.50021 4.90026L9.86917 1.89781L10.0945 3.90418L9.86918 6.23463L6.50021 9.23708L3.13123 6.23464Z" fill="#EA4335"/>
<path d="M9.86917 1.89781L9.86918 6.23463L12.6767 3.73268V2.3982C12.6767 1.16056 11.4877 0.455013 10.6553 1.19725L9.86917 1.89781Z" fill="#FBBC04"/>
<path d="M0.323738 3.73263L3.13123 6.23464L3.13124 1.89781L2.34507 1.19726C1.51125 0.454964 0.32373 1.16057 0.32373 2.39815L0.323738 3.73263Z" fill="#C5221F"/>
</svg>
