<svg width="59" height="58" viewBox="0 0 59 58" fill="none" xmlns="http://www.w3.org/2000/svg">
<path d="M57.8843 16.8985C57.743 13.8378 57.2522 11.7477 56.5346 9.91901C55.806 8.00041 54.6632 6.26256 53.1863 4.82613C51.7366 3.36337 49.9816 2.23099 48.0445 1.50882C46.1979 0.798505 44.0881 0.312821 40.998 0.173741C37.9022 0.0333442 36.9131 0 29.0294 0C21.1457 0 20.1566 0.0333442 17.0608 0.172863C13.9708 0.312821 11.861 0.798944 10.0143 1.5097C8.07726 2.23143 6.32272 3.36337 4.87249 4.82613C3.39568 6.26212 2.25242 7.99997 1.52332 9.91857C0.806176 11.7477 0.315826 13.8378 0.17541 16.898C0.0336645 19.9648 0 20.9441 0 28.7528C0 36.5619 0.0336645 37.5416 0.17541 40.6079C0.316269 43.6681 0.807062 45.7583 1.52465 47.5874C2.25331 49.5056 3.39613 51.2438 4.87293 52.6798C6.32272 54.1426 8.07771 55.2745 10.0147 55.9963C11.861 56.7075 13.9712 57.1931 17.0613 57.3331C20.1575 57.4731 21.1462 57.506 29.0299 57.506C36.9136 57.506 37.9027 57.4731 40.9985 57.3331C44.0885 57.1931 46.1983 56.7075 48.045 55.9963C51.9443 54.5028 55.0268 51.4496 56.5346 47.5874C57.2527 45.7583 57.743 43.6681 57.8843 40.6079C58.0252 37.5411 58.0588 36.5619 58.0588 28.7532C58.0588 20.9441 58.0252 19.9648 57.8843 16.8985ZM52.6588 40.3723C52.5299 43.1759 52.0568 44.6983 51.6595 45.7113C50.6828 48.2192 48.682 50.201 46.15 51.1684C45.1273 51.5619 43.5902 52.0305 40.7597 52.1582C37.6994 52.2968 36.7811 52.3258 29.0294 52.3258C21.2773 52.3258 20.3595 52.2968 17.2987 52.1582C14.4686 52.0305 12.9316 51.5619 11.9084 51.1684C10.6477 50.7073 9.50712 49.9724 8.57071 49.0172C7.6064 48.0897 6.86445 46.9604 6.39891 45.7113C6.00158 44.6983 5.52851 43.1759 5.39961 40.3723C5.26008 37.3406 5.2304 36.4311 5.2304 28.7536C5.2304 21.0757 5.26008 20.1666 5.39961 17.1345C5.52895 14.331 6.00158 12.8085 6.39891 11.7955C6.86445 10.5464 7.60685 9.41665 8.57071 8.48916C9.50712 7.53403 10.6477 6.79914 11.9088 6.33846C12.9316 5.94447 14.4686 5.47634 17.2991 5.34823C20.3599 5.21003 21.2782 5.18063 29.0294 5.18063C36.7807 5.18063 37.6985 5.21003 40.7597 5.34867C43.5902 5.47634 45.1268 5.94491 46.15 6.33846C47.4107 6.79958 48.5513 7.53446 49.4877 8.48916C50.452 9.41665 51.1939 10.5464 51.659 11.7955C52.0568 12.8085 52.5299 14.331 52.6588 17.1345C52.7983 20.1662 52.828 21.0757 52.828 28.7532C52.828 36.4311 52.7988 37.3402 52.6588 40.3723Z" fill="url(#paint0_linear_445_689)"/>
<path d="M29.029 13.9879C20.7962 13.9879 14.1222 20.5988 14.1222 28.7532C14.1222 36.9076 20.7962 43.5181 29.029 43.5181C37.2621 43.5181 43.9361 36.9076 43.9361 28.7532C43.9361 20.5988 37.2621 13.9879 29.029 13.9879ZM29.029 38.3374C23.6852 38.337 19.3526 34.0461 19.3531 28.7528C19.3531 23.4598 23.6852 19.1685 29.0294 19.1685C34.3736 19.1689 38.7057 23.4598 38.7057 28.7528C38.7057 34.0461 34.3732 38.3374 29.029 38.3374Z" fill="url(#paint1_linear_445_689)"/>
<path d="M48.0086 13.4048C48.0086 15.3102 46.449 16.855 44.5253 16.855C42.6011 16.855 41.0414 15.3102 41.0414 13.4048C41.0414 11.4989 42.6011 9.95411 44.5253 9.95411C46.449 9.95411 48.0086 11.4989 48.0086 13.4048Z" fill="url(#paint2_linear_445_689)"/>
<defs>
<linearGradient id="paint0_linear_445_689" x1="4.8722" y1="52.6801" x2="52.7247" y2="4.36786" gradientUnits="userSpaceOnUse">
<stop stop-color="#FFD600"/>
<stop offset="0.5" stop-color="#FF0100"/>
<stop offset="1" stop-color="#D800B9"/>
</linearGradient>
<linearGradient id="paint1_linear_445_689" x1="8.50263" y1="49.0845" x2="49.1636" y2="8.03257" gradientUnits="userSpaceOnUse">
<stop stop-color="#FF6400"/>
<stop offset="0.5" stop-color="#FF0100"/>
<stop offset="1" stop-color="#FD0056"/>
</linearGradient>
<linearGradient id="paint2_linear_445_689" x1="8.50399" y1="49.0836" x2="49.1631" y2="8.03357" gradientUnits="userSpaceOnUse">
<stop stop-color="#F30072"/>
<stop offset="1" stop-color="#E50097"/>
</linearGradient>
</defs>
</svg>
